<svg width="24" height="27" viewBox="0 0 24 27" fill="none" xmlns="http://www.w3.org/2000/svg">
<path d="M12 15.815H13C13.5493 15.7931 14.0677 15.5551 14.4423 15.1528C14.8169 14.7505 15.0173 14.2164 15 13.667V2.92499H6.00001C5.27234 2.9358 4.56171 3.14682 3.94607 3.5349C3.33043 3.92298 2.83358 4.47313 2.51001 5.12499" stroke="#14489E" stroke-width="1.5" stroke-linecap="round" stroke-linejoin="round"/>
<path d="M2.00003 19.0379C1.97059 19.863 2.27013 20.666 2.83274 21.2703C3.39534 21.8745 4.17494 22.2305 5.00003 22.2599H6.00003C5.98271 21.7105 6.18318 21.1765 6.55778 20.7742C6.93237 20.3719 7.45075 20.1338 8.00003 20.1119C8.5493 20.1338 9.06768 20.3719 9.44228 20.7742C9.81688 21.1765 10.0173 21.7105 10 22.2599H14C13.9827 21.7105 14.1832 21.1765 14.5578 20.7742C14.9324 20.3719 15.4508 20.1338 16 20.1119C16.5493 20.1338 17.0677 20.3719 17.4423 20.7742C17.8169 21.1765 18.0173 21.7105 18 22.2599H19C19.8251 22.2305 20.6047 21.8745 21.1673 21.2703C21.7299 20.666 22.0295 19.863 22 19.0379V15.8149H19C18.7254 15.804 18.4662 15.685 18.2789 15.4838C18.0916 15.2827 17.9914 15.0157 18 14.7409V11.5189C17.9922 11.2447 18.0928 10.9785 18.28 10.778C18.4672 10.5775 18.7259 10.4589 19 10.4479H20.29L18.58 7.23295C18.4149 6.91189 18.166 6.64151 17.8597 6.45048C17.5533 6.25946 17.201 6.15492 16.84 6.14795H15V13.6669C15.0173 14.2164 14.8169 14.7504 14.4423 15.1527C14.0677 15.555 13.5493 15.7931 13 15.8149H12" stroke="#14489E" stroke-width="1.5" stroke-linecap="round" stroke-linejoin="round"/>
<path d="M10 22.26C10.02 22.8105 9.82058 23.3465 9.44554 23.75C9.0705 24.1536 8.55056 24.3917 8.00003 24.412C7.44949 24.3917 6.92956 24.1536 6.55452 23.75C6.17948 23.3465 5.98003 22.8105 6.00003 22.26C5.98112 21.7101 6.18105 21.1752 6.55597 20.7725C6.9309 20.3699 7.45021 20.1323 8.00003 20.112C8.54984 20.1323 9.06916 20.3699 9.44408 20.7725C9.81901 21.1752 10.0189 21.7101 10 22.26Z" stroke="#14489E" stroke-width="1.5" stroke-linecap="round" stroke-linejoin="round"/>
<path d="M18 22.26C18.02 22.8105 17.8206 23.3465 17.4455 23.75C17.0705 24.1536 16.5506 24.3917 16 24.412C15.4495 24.3917 14.9296 24.1536 14.5545 23.75C14.1795 23.3465 13.98 22.8105 14 22.26C13.9811 21.7101 14.181 21.1752 14.556 20.7725C14.9309 20.3699 15.4502 20.1323 16 20.112C16.5498 20.1323 17.0692 20.3699 17.4441 20.7725C17.819 21.1752 18.0189 21.7101 18 22.26Z" stroke="#14489E" stroke-width="1.5" stroke-linecap="round" stroke-linejoin="round"/>
<path d="M22 13.666V15.815H19C18.7259 15.804 18.4672 15.6854 18.28 15.4849C18.0928 15.2844 17.9922 15.0182 18 14.744V11.518C17.9914 11.2433 18.0916 10.9762 18.2789 10.7751C18.4662 10.5739 18.7254 10.4549 19 10.444H20.29L22 13.666Z" stroke="#14489E" stroke-width="1.5" stroke-linecap="round" stroke-linejoin="round"/>
<path d="M2 9.37H8" stroke="#14489E" stroke-width="1.5" stroke-linecap="round" stroke-linejoin="round"/>
<path d="M2 12.593H6" stroke="#14489E" stroke-width="1.5" stroke-linecap="round" stroke-linejoin="round"/>
<path d="M2 15.815H4" stroke="#14489E" stroke-width="1.5" stroke-linecap="round" stroke-linejoin="round"/>
</svg>
