<svg width="14" height="21" viewBox="0 0 14 21" fill="none" xmlns="http://www.w3.org/2000/svg">
<path d="M1.827 15C1.665 15 1.509 14.979 1.359 14.937C1.209 14.889 1.077 14.811 0.963 14.703C0.855 14.595 0.768 14.454 0.702 14.28C0.636 14.1 0.603 13.878 0.603 13.614V9.42H1.341V13.452C1.341 13.68 1.389 13.863 1.485 14.001C1.587 14.139 1.746 14.208 1.962 14.208H2.142C2.274 14.208 2.34 14.337 2.34 14.595C2.34 14.865 2.274 15 2.142 15H1.827ZM2.26153 14.208C2.71753 14.208 2.94553 14.016 2.94553 13.632V13.353C2.94553 12.843 3.07753 12.441 3.34153 12.147C3.61153 11.847 3.98353 11.697 4.45753 11.697C4.70353 11.697 4.91953 11.739 5.10553 11.823C5.29153 11.901 5.44753 12.012 5.57353 12.156C5.69953 12.3 5.79253 12.474 5.85253 12.678C5.91853 12.876 5.95153 13.095 5.95153 13.335C5.95153 13.863 5.81653 14.274 5.54653 14.568C5.27653 14.856 4.90453 15 4.43053 15C4.19053 15 3.95953 14.955 3.73753 14.865C3.52153 14.769 3.35353 14.61 3.23353 14.388C3.17953 14.514 3.11353 14.619 3.03553 14.703C2.95753 14.781 2.87653 14.844 2.79253 14.892C2.70853 14.934 2.61853 14.964 2.52253 14.982C2.43253 14.994 2.34553 15 2.26153 15H2.14453C2.06653 15 2.01553 14.97 1.99153 14.91C1.96153 14.844 1.94653 14.748 1.94653 14.622C1.94653 14.478 1.96153 14.373 1.99153 14.307C2.01553 14.241 2.06653 14.208 2.14453 14.208H2.26153ZM5.23153 13.389C5.23153 13.125 5.17153 12.909 5.05153 12.741C4.93753 12.573 4.73353 12.489 4.43953 12.489C4.16953 12.489 3.96853 12.57 3.83653 12.732C3.71053 12.894 3.64753 13.122 3.64753 13.416C3.64753 13.68 3.71953 13.878 3.86353 14.01C4.01353 14.142 4.20253 14.208 4.43053 14.208C4.70053 14.208 4.90153 14.139 5.03353 14.001C5.16553 13.857 5.23153 13.653 5.23153 13.389ZM7.73859 16.395C7.98459 16.395 8.20059 16.356 8.38659 16.278C8.57259 16.206 8.72559 16.107 8.84559 15.981C8.97159 15.855 9.06759 15.708 9.13359 15.54C9.19959 15.372 9.23859 15.192 9.25059 15H8.48559C8.17959 15 7.92759 14.967 7.72959 14.901C7.53159 14.835 7.37559 14.739 7.26159 14.613C7.14759 14.487 7.06659 14.334 7.01859 14.154C6.97659 13.968 6.95559 13.761 6.95559 13.533C6.95559 13.305 6.98859 13.089 7.05459 12.885C7.12059 12.675 7.21659 12.492 7.34259 12.336C7.46859 12.18 7.62459 12.057 7.81059 11.967C8.00259 11.871 8.22459 11.823 8.47659 11.823C8.67459 11.823 8.86359 11.856 9.04359 11.922C9.22959 11.988 9.39159 12.093 9.52959 12.237C9.66759 12.375 9.77559 12.558 9.85359 12.786C9.93759 13.014 9.97959 13.29 9.97959 13.614V14.208H10.7806C10.8526 14.208 10.9006 14.241 10.9246 14.307C10.9546 14.367 10.9696 14.463 10.9696 14.595C10.9696 14.733 10.9546 14.835 10.9246 14.901C10.9006 14.967 10.8526 15 10.7806 15H9.96159C9.94959 15.294 9.88959 15.573 9.78159 15.837C9.67959 16.101 9.53559 16.332 9.34959 16.53C9.16359 16.728 8.93859 16.884 8.67459 16.998C8.41059 17.118 8.11659 17.178 7.79259 17.178H6.85659L6.80259 16.395H7.73859ZM7.65759 13.488C7.65759 13.746 7.71759 13.932 7.83759 14.046C7.96359 14.154 8.20359 14.208 8.55759 14.208H9.26859V13.65C9.26859 13.272 9.19359 13.002 9.04359 12.84C8.89959 12.672 8.69559 12.588 8.43159 12.588C8.18559 12.588 7.99359 12.669 7.85559 12.831C7.72359 12.987 7.65759 13.206 7.65759 13.488ZM11.6032 14.208C11.8192 14.208 11.9872 14.151 12.1072 14.037C12.2332 13.923 12.2962 13.761 12.2962 13.551V12.399H13.0342V13.587C13.0342 14.043 12.9112 14.394 12.6652 14.64C12.4252 14.88 12.0892 15 11.6572 15H10.7842C10.7062 15 10.6552 14.97 10.6312 14.91C10.6012 14.844 10.5862 14.748 10.5862 14.622C10.5862 14.478 10.6012 14.373 10.6312 14.307C10.6552 14.241 10.7062 14.208 10.7842 14.208H11.6032ZM13.0972 11.292H12.2782V10.536H13.0972V11.292ZM11.8912 11.292H11.0722V10.536H11.8912V11.292Z" fill="#8C8C8C"/>
<path d="M6.346 7.793C6.346 8.123 6.292 8.432 6.184 8.72C6.082 9.014 5.935 9.269 5.743 9.485C5.551 9.701 5.317 9.869 5.041 9.989C4.765 10.115 4.456 10.178 4.114 10.178H3.565C2.893 10.178 2.371 9.971 1.999 9.557C1.627 9.143 1.441 8.576 1.441 7.856V6.263H2.17V7.829C2.17 8.297 2.287 8.675 2.521 8.963C2.755 9.251 3.139 9.395 3.673 9.395H4.069C4.339 9.395 4.57 9.353 4.762 9.269C4.96 9.185 5.122 9.071 5.248 8.927C5.374 8.783 5.467 8.615 5.527 8.423C5.587 8.231 5.617 8.03 5.617 7.82V5.399H6.346V7.793ZM4.204 5.228H3.322V4.454H4.204V5.228Z" fill="#8C8C8C"/>
</svg>
